<?xml version="1.0" standalone="no"?>
<!DOCTYPE svg PUBLIC "-//W3C//DTD SVG 20010904//EN"
 "http://www.w3.org/TR/2001/REC-SVG-20010904/DTD/svg10.dtd">
<svg version="1.0" xmlns="http://www.w3.org/2000/svg"
 width="601.000000pt" height="601.000000pt" viewBox="0 0 601.000000 601.000000"
 preserveAspectRatio="xMidYMid meet">
<metadata>
Created by potrace 1.14, written by Peter Selinger 2001-2017
</metadata>
<g transform="translate(0.000000,601.000000) scale(0.100000,-0.100000)"
fill="#000000" stroke="none">
<path d="M2985 3457 c0 -1310 -2 -1492 -15 -1490 -8 1 -40 10 -70 18 -58 18
-235 25 -305 13 -62 -11 -152 -45 -224 -84 -289 -159 -482 -519 -376 -700 84
-143 390 -195 640 -109 243 84 398 268 461 545 4 19 9 552 10 1184 2 631 5
1150 7 1153 7 6 231 -107 302 -152 241 -154 393 -334 463 -550 38 -116 44
-154 46 -304 4 -221 -67 -515 -190 -787 -36 -81 -57 -127 -61 -139 -10 -24 61
65 110 139 98 147 211 385 231 487 2 13 9 45 15 71 39 172 25 402 -36 571 -49
136 -153 319 -230 402 -306 333 -515 650 -703 1070 -35 77 -66 143 -69 147 -3
4 -6 -664 -6 -1485z"/>
</g>
</svg>
